<?xml version="1.0" standalone="no"?>
<!DOCTYPE svg PUBLIC "-//W3C//DTD SVG 20010904//EN"
 "http://www.w3.org/TR/2001/REC-SVG-20010904/DTD/svg10.dtd">
<svg version="1.0" xmlns="http://www.w3.org/2000/svg"
 width="255.000000pt" height="255.000000pt" viewBox="0 0 255.000000 255.000000"
 preserveAspectRatio="xMidYMid meet">

<g transform="translate(0.000000,255.000000) scale(0.100000,-0.100000)"
fill="#000000" stroke="none">
<path d="M1060 2546 c0 -2 7 -7 16 -10 8 -3 12 -2 9 4 -6 10 -25 14 -25 6z"/>
<path d="M1455 2540 c-3 -6 1 -7 9 -4 18 7 21 14 7 14 -6 0 -13 -4 -16 -10z"/>
<path d="M1150 2446 c0 -2 8 -10 18 -17 15 -13 16 -12 3 4 -13 16 -21 21 -21
13z"/>
<path d="M672 2375 c0 -16 2 -22 5 -12 2 9 2 23 0 30 -3 6 -5 -1 -5 -18z"/>
<path d="M1200 2386 c0 -2 8 -10 18 -17 15 -13 16 -12 3 4 -13 16 -21 21 -21
13z"/>
<path d="M1319 2373 c-13 -16 -12 -17 4 -4 9 7 17 15 17 17 0 8 -8 3 -21 -13z"/>
<path d="M1862 2345 c0 -16 2 -22 5 -12 2 9 2 23 0 30 -3 6 -5 -1 -5 -18z"/>
<path d="M1260 2316 c7 -7 13 -7 20 0 6 6 3 10 -10 10 -13 0 -16 -4 -10 -10z"/>
<path d="M662 2225 c0 -16 2 -22 5 -12 2 9 2 23 0 30 -3 6 -5 -1 -5 -18z"/>
<path d="M1872 2200 c0 -19 2 -27 5 -17 2 9 2 25 0 35 -3 9 -5 1 -5 -18z"/>
<path d="M350 2180 c0 -5 7 -7 15 -4 8 4 15 8 15 10 0 2 -7 4 -15 4 -8 0 -15
-4 -15 -10z"/>
<path d="M2160 2186 c0 -2 7 -6 15 -10 8 -3 15 -1 15 4 0 6 -7 10 -15 10 -8 0
-15 -2 -15 -4z"/>
<path d="M1865 1910 c10 -11 20 -20 23 -20 3 0 -3 9 -13 20 -10 11 -20 20 -23
20 -3 0 3 -9 13 -20z"/>
<path d="M639 1883 l-24 -28 28 24 c25 23 32 31 24 31 -2 0 -14 -12 -28 -27z"/>
<path d="M318 1873 c12 -2 30 -2 40 0 9 3 -1 5 -23 4 -22 0 -30 -2 -17 -4z"/>
<path d="M2183 1873 c9 -2 25 -2 35 0 9 3 1 5 -18 5 -19 0 -27 -2 -17 -5z"/>
<path d="M178 1863 c12 -2 30 -2 40 0 9 3 -1 5 -23 4 -22 0 -30 -2 -17 -4z"/>
<path d="M2323 1863 c9 -2 25 -2 35 0 9 3 1 5 -18 5 -19 0 -27 -2 -17 -5z"/>
<path d="M659 1773 c-13 -16 -12 -17 4 -4 9 7 17 15 17 17 0 8 -8 3 -21 -13z"/>
<path d="M23 1444 c4 -6 49 -46 102 -90 52 -43 95 -81 95 -84 0 -3 -49 -46
-110 -95 -60 -50 -108 -96 -107 -104 1 -8 59 -38 132 -67 72 -30 133 -55 136
-56 4 -2 -31 -61 -76 -133 l-84 -130 31 -6 c16 -4 88 -10 158 -14 l128 -7 -40
-150 c-22 -82 -37 -152 -35 -155 3 -2 72 13 155 35 l150 40 7 -141 c4 -77 10
-149 14 -158 5 -15 25 -5 136 66 110 70 131 81 138 67 4 -10 29 -71 55 -137
28 -69 54 -121 63 -122 8 -1 54 47 104 107 49 61 92 110 95 110 3 0 46 -49 95
-110 50 -60 96 -108 104 -107 7 1 38 64 68 139 l55 137 56 -36 c32 -20 91 -58
133 -84 l77 -48 6 52 c3 29 8 100 12 158 l6 107 151 -39 c82 -22 151 -38 153
-36 2 1 -14 70 -35 154 l-38 150 106 7 c58 4 129 9 158 12 l51 6 -77 122 c-42
66 -80 126 -84 132 -4 7 48 33 138 69 80 33 145 61 144 64 0 4 -52 48 -115
100 -62 52 -114 97 -114 101 0 4 45 45 100 90 55 45 100 85 100 88 0 3 -8 -2
-17 -10 -10 -8 -57 -47 -105 -87 -49 -40 -88 -77 -88 -81 0 -6 106 -101 194
-172 20 -17 12 -18 -171 -18 l-193 0 -1 23 c0 12 -8 -9 -18 -48 -48 -189 -141
-333 -304 -468 -173 -144 -402 -211 -640 -186 -202 20 -359 93 -511 238 -155
149 -244 327 -266 532 l-9 84 4 -87 4 -88 -189 0 c-105 0 -190 2 -190 4 0 2
47 42 105 90 58 48 105 91 105 96 0 6 -59 58 -194 169 -11 9 -17 11 -13 5z"/>
<path d="M2142 1350 c0 -19 2 -27 5 -17 2 9 2 25 0 35 -3 9 -5 1 -5 -18z"/>
<path d="M392 1350 c0 -14 2 -19 5 -12 2 6 2 18 0 25 -3 6 -5 1 -5 -13z"/>
<path d="M481 1344 c0 -11 3 -14 6 -6 3 7 2 16 -1 19 -3 4 -6 -2 -5 -13z"/>
<path d="M2053 1325 c0 -22 2 -30 4 -17 2 12 2 30 0 40 -3 9 -5 -1 -4 -23z"/>
<path d="M2053 1215 c0 -22 2 -30 4 -17 2 12 2 30 0 40 -3 9 -5 -1 -4 -23z"/>
<path d="M478 1228 c-3 -7 -1 -24 3 -38 6 -22 7 -20 8 13 1 38 -3 47 -11 25z"/>
<path d="M2143 1180 c0 -25 2 -35 4 -22 2 12 2 32 0 45 -2 12 -4 2 -4 -23z"/>
<path d="M491 1139 c-3 -67 65 -229 136 -328 37 -50 41 -53 85 -55 36 -1 56
-9 87 -34 22 -18 45 -32 51 -32 6 0 33 16 61 35 60 41 105 45 162 15 l37 -20
0 130 c0 111 -2 130 -15 130 -25 0 -65 46 -65 75 l0 25 -260 0 -260 0 -4 23
c-3 12 -7 31 -9 42 -4 15 -5 13 -6 -6z"/>
<path d="M2042 1135 c0 -16 2 -22 5 -12 2 9 2 23 0 30 -3 6 -5 -1 -5 -18z"/>
<path d="M2030 1092 c0 -8 -22 -12 -62 -13 -46 0 -57 -3 -42 -9 12 -5 29 -18
37 -30 35 -50 -37 -166 -130 -210 -51 -24 -146 -30 -181 -11 -17 9 -21 7 -26
-12 -10 -37 -7 -45 17 -51 13 -3 41 -19 62 -36 21 -16 43 -30 50 -30 7 0 29
13 50 30 20 16 41 27 46 24 11 -6 93 106 129 177 32 62 65 167 56 176 -3 4 -6
1 -6 -5z"/>
<path d="M1060 1067 c0 -22 23 -47 43 -47 42 0 47 -16 47 -162 l0 -138 24 0
c14 0 41 9 61 21 24 15 47 20 75 17 l39 -3 3 130 3 130 33 3 c24 3 35 10 43
28 5 14 9 26 9 27 0 1 -86 2 -190 2 -105 1 -190 -3 -190 -8z"/>
<path d="M1470 1055 c0 -29 -40 -75 -65 -75 -13 0 -15 -19 -15 -123 0 -116 1
-125 23 -145 31 -29 38 -28 102 15 62 42 63 50 14 117 -36 49 -26 64 29 48 50
-15 52 -15 52 3 0 25 29 77 62 112 29 30 29 31 9 38 -12 3 -21 13 -21 21 0 11
-19 14 -95 14 l-95 0 0 -25z"/>
<path d="M1725 1060 c4 -6 11 -8 16 -5 14 9 11 15 -7 15 -8 0 -12 -5 -9 -10z"/>
<path d="M1798 1036 c-62 -17 -116 -59 -139 -110 -25 -55 -24 -62 12 -75 96
-33 208 19 252 118 19 43 19 45 1 58 -24 18 -32 16 -30 -4 0 -10 -6 -18 -14
-18 -8 0 -15 9 -15 19 0 25 -11 27 -67 12z m102 -100 c0 -3 -5 -6 -12 -6 -19
0 -48 32 -48 52 0 17 4 15 30 -10 17 -17 30 -33 30 -36z"/>
<path d="M1580 835 c7 -9 15 -13 17 -11 7 7 -7 26 -19 26 -6 0 -6 -6 2 -15z"/>
<path d="M755 670 c10 -11 20 -20 23 -20 3 0 -3 9 -13 20 -10 11 -20 20 -23
20 -3 0 3 -9 13 -20z"/>
<path d="M990 682 c-8 -3 -29 -16 -47 -29 -18 -14 -51 -27 -74 -30 -39 -6 -41
-7 -23 -20 31 -23 97 -55 89 -44 -8 13 35 31 75 31 15 0 51 -15 80 -35 29 -19
58 -35 65 -35 7 0 29 13 50 30 65 52 130 52 196 -1 45 -35 59 -36 97 -4 16 13
41 29 56 35 35 13 86 13 86 -1 0 -10 37 9 81 42 23 18 23 18 2 12 -15 -3 -38
5 -69 25 -50 34 -58 33 -118 -10 -54 -38 -107 -38 -169 2 -26 17 -57 30 -67
30 -11 0 -39 -13 -62 -30 -63 -46 -122 -39 -213 24 -11 8 -27 11 -35 8z"/>
<path d="M1774 668 l-19 -23 23 19 c21 18 27 26 19 26 -2 0 -12 -10 -23 -22z"/>
<path d="M1256 495 c-18 -14 -14 -15 44 -15 58 0 62 1 44 15 -10 8 -30 14 -44
14 -14 0 -34 -6 -44 -14z"/>
<path d="M1108 493 c7 -3 16 -2 19 1 4 3 -2 6 -13 5 -11 0 -14 -3 -6 -6z"/>
<path d="M1183 483 c9 -2 25 -2 35 0 9 3 1 5 -18 5 -19 0 -27 -2 -17 -5z"/>
</g>
</svg>
